<svg width="212" height="41" viewBox="0 0 212 41" fill="none" xmlns="http://www.w3.org/2000/svg">
<path d="M4.16 2.08H8.04V27.28H22.72V31H4.16V2.08ZM26.1628 31L38.8028 0.879999H39.0428L51.6428 31H47.2028L37.7628 6.96L40.5228 5.16L29.9628 31H26.1628ZM33.5628 20.04H44.3228L45.6028 23.4H32.4428L33.5628 20.04ZM82.1297 31.92L59.7697 9.24L60.8897 9.52L60.9697 31H57.0897V1.2H57.2897L79.4097 23.96L78.4897 23.76L78.4097 2.08H82.2497V31.92H82.1297ZM88.7663 16.56C88.7663 14.56 89.1396 12.68 89.8863 10.92C90.6596 9.13333 91.7263 7.56 93.0863 6.2C94.4463 4.81333 96.0063 3.73333 97.7663 2.96C99.5529 2.16 101.473 1.76 103.526 1.76C105.553 1.76 107.446 2.16 109.206 2.96C110.993 3.73333 112.566 4.81333 113.926 6.2C115.313 7.56 116.393 9.13333 117.166 10.92C117.94 12.68 118.326 14.56 118.326 16.56C118.326 18.6133 117.94 20.5333 117.166 22.32C116.393 24.1067 115.313 25.68 113.926 27.04C112.566 28.3733 110.993 29.4267 109.206 30.2C107.446 30.9467 105.553 31.32 103.526 31.32C101.473 31.32 99.5529 30.9467 97.7663 30.2C96.0063 29.4533 94.4463 28.4133 93.0863 27.08C91.7263 25.7467 90.6596 24.1867 89.8863 22.4C89.1396 20.6133 88.7663 18.6667 88.7663 16.56ZM92.7663 16.6C92.7663 18.12 93.0463 19.5467 93.6063 20.88C94.1663 22.1867 94.9396 23.3467 95.9263 24.36C96.9129 25.3733 98.0596 26.1733 99.3663 26.76C100.673 27.32 102.086 27.6 103.606 27.6C105.1 27.6 106.5 27.32 107.806 26.76C109.113 26.1733 110.246 25.3733 111.206 24.36C112.166 23.3467 112.926 22.1867 113.486 20.88C114.046 19.5467 114.326 18.1067 114.326 16.56C114.326 15.04 114.046 13.6133 113.486 12.28C112.926 10.92 112.153 9.73333 111.166 8.72C110.18 7.70667 109.033 6.92 107.726 6.36C106.42 5.77333 105.02 5.48 103.526 5.48C102.006 5.48 100.593 5.77333 99.2863 6.36C97.9796 6.94666 96.8329 7.74666 95.8463 8.76C94.8596 9.77333 94.0996 10.96 93.5663 12.32C93.0329 13.6533 92.7663 15.08 92.7663 16.6ZM132.543 2.08C134.01 2.08 135.356 2.28 136.583 2.68C137.836 3.05333 138.916 3.62667 139.823 4.4C140.756 5.14667 141.476 6.08 141.983 7.2C142.516 8.29333 142.783 9.57333 142.783 11.04C142.783 12.1867 142.61 13.3067 142.263 14.4C141.943 15.4933 141.396 16.4933 140.623 17.4C139.85 18.28 138.836 19 137.583 19.56C136.356 20.0933 134.836 20.36 133.023 20.36H128.743V31H124.863V2.08H132.543ZM132.943 16.64C134.09 16.64 135.036 16.4667 135.783 16.12C136.556 15.7733 137.156 15.3333 137.583 14.8C138.01 14.24 138.316 13.64 138.503 13C138.69 12.36 138.783 11.76 138.783 11.2C138.783 10.6133 138.676 10.0133 138.463 9.4C138.276 8.76 137.956 8.17333 137.503 7.64C137.076 7.10667 136.503 6.66667 135.783 6.32C135.09 5.97333 134.236 5.8 133.223 5.8H128.743V16.64H132.943ZM137.703 18.84L145.263 31H140.783L133.103 18.96L137.703 18.84ZM151.23 2.08H155.11V31H151.23V2.08ZM171.098 21.36L160.378 2.08H165.138L173.738 18.04L172.538 18.12L181.058 2.08H185.778L174.978 21.36V31H171.098V21.36ZM184.327 31L196.967 0.879999H197.207L209.807 31H205.367L195.927 6.96L198.687 5.16L188.127 31H184.327ZM191.727 20.04H202.487L203.767 23.4H190.607L191.727 20.04Z" fill="url(#paint0_linear_1_42)"/>
<defs>
<linearGradient id="paint0_linear_1_42" x1="0" y1="1" x2="114.689" y2="0.999995" gradientUnits="userSpaceOnUse">
<stop stop-color="#832700"/>
<stop offset="0.0001" stop-color="#EC4700"/>
<stop offset="1" stop-color="#FF0000" stop-opacity="0.41"/>
</linearGradient>
</defs>
</svg>
